<?xml version="1.0" encoding="UTF-8"?>
<svg width="145px" height="232px" viewBox="0 0 145 232" version="1.1" xmlns="http://www.w3.org/2000/svg" xmlns:xlink="http://www.w3.org/1999/xlink">
    <!-- Generator: Sketch 48.2 (47327) - http://www.bohemiancoding.com/sketch -->
    <title>Scarecrow Copy</title>
    <desc>Created with Sketch.</desc>
    <defs>
        <path d="M45.7763158,78.5342466 C53.4295775,78.5342466 85.2705863,74.1391241 90.2859989,67.0331724 C95.3014116,59.9272208 73.4912281,50.11044 73.4912281,39.2671233 C73.4912281,34.6888 69.7855866,27.7598653 62.3743038,18.480319 C57.4334485,12.2939548 47.7487391,6.13384846 33.3201754,0 C23.1476608,12.0524195 18.0614035,25.1414606 18.0614035,39.2671233 C18.0614035,60.4556173 -3.74877997,59.9272208 1.26663267,67.0331724 C6.28204532,74.1391241 38.1230541,78.5342466 45.7763158,78.5342466 Z" id="path-1"></path>
    </defs>
    <g id="Moodboard" stroke="none" stroke-width="1" fill="none" fill-rule="evenodd" transform="translate(-527.000000, -634.000000)">
        <g id="Scarecrow-Copy" transform="translate(527.000000, 634.000000)">
            <g id="Arms" transform="translate(6.000000, 128.000000)">
                <g id="Right-Arm" transform="translate(94.478261, 0.000000)">
                    <path d="M0,21.22038 C4.27185601,13.5733062 9.04963379,13.5733062 14.3333333,21.22038 C17.5422295,25.8646004 24.839982,34.5420649 28.7483302,47.2527735 C29.8572232,50.8591091 30.7526292,54.7245999 31.4345482,58.8492461 L31.4345591,58.8492443 C33.0694255,68.7378743 26.3975768,78.0858967 16.5144928,79.753962 L16.5144928,79.753962 C8.80418412,81.0553067 1.49879572,75.8598149 0.197451066,68.1495062 C0.0660472976,67.3709549 2.60407736e-14,66.5827759 2.66453526e-14,65.7932133 L0,21.22038 Z" id="Rectangle-9-Copy" fill="#E1C5C0"></path>
                    <path d="M24.7086303,58.3006684 L26.0175865,56.9567519 L34.3440825,63.192735 C34.8895989,63.6012899 35.0437103,64.3530859 34.7029372,64.9433222 C34.3671799,65.5248708 33.6371917,65.7452357 33.0357319,65.4466091 L25.0333498,61.4734018 L25.0333498,70.5561368 C25.0333498,71.4815287 24.2831714,72.2317071 23.3577795,72.2317071 C22.4323876,72.2317071 21.6822092,71.4815287 21.6822092,70.5561368 L21.6822092,64.078451 L20.5060123,68.4680776 C20.1474004,69.8064354 18.7717347,70.6006764 17.4333769,70.2420645 L19.6494162,60.8300421 L16.0001433,64.479315 C15.019861,65.4595974 13.4305093,65.4595974 12.450227,64.479315 L18.2556352,58.6739068 L10.0879477,60.8624321 C9.72913945,59.5233416 10.5238153,58.1469226 11.8629058,57.7881144 L19.5106606,55.7389047 L19.8963919,57.1784736 L20.3923885,57.6744701 L20.5255491,57.1089064 L21.3698221,58.6519037 L21.5986883,58.88077 L21.531702,58.9477563 L21.6822092,59.2228239 L21.6822092,58.3006684 L24.7086303,58.3006684 Z" id="Combined-Shape-Copy" fill="#CEA053"></path>
                    <path d="M0,6.19402985 C4.27185601,-1.45304392 9.04963379,-1.45304392 14.3333333,6.19402985 C17.5422295,10.8382503 24.839982,19.5157148 28.7483302,32.2264234 C31.3538957,40.7002291 32.7807808,50.6048542 33.0289855,61.9402985 L0,67.5149254 L0,6.19402985 Z" id="Rectangle-9" fill="#0E4829"></path>
                </g>
                <g id="Left-Arm" transform="translate(17.652174, 40.000000) scale(-1, 1) translate(-17.652174, -40.000000) translate(0.652174, 0.000000)">
                    <path d="M0,21.22038 C4.27185601,13.5733062 9.04963379,13.5733062 14.3333333,21.22038 C17.5422295,25.8646004 24.839982,34.5420649 28.7483302,47.2527735 C29.8572232,50.8591091 30.7526292,54.7245999 31.4345482,58.8492461 L31.4345591,58.8492443 C33.0694255,68.7378743 26.3975768,78.0858967 16.5144928,79.753962 L16.5144928,79.753962 C8.80418412,81.0553067 1.49879572,75.8598149 0.197451066,68.1495062 C0.0660472976,67.3709549 -1.69656024e-14,66.5827759 -1.77635684e-14,65.7932133 L0,21.22038 Z" id="Rectangle-9-Copy" fill="#E1C5C0"></path>
                    <path d="M22.8416963,60.7782803 L24.1506524,59.4343638 L32.4771484,65.670347 C33.0226648,66.0789019 33.1767762,66.8306978 32.8360031,67.4209341 C32.5002459,68.0024828 31.7702576,68.2228477 31.1687978,67.924221 L23.1664157,63.9510137 L23.1664157,73.0337487 C23.1664157,73.9591407 22.4162374,74.7093191 21.4908454,74.7093191 C20.5654535,74.7093191 19.8152751,73.9591407 19.8152751,73.0337487 L19.8152751,66.556063 L18.6390782,70.9456896 C18.2804663,72.2840474 16.9048006,73.0782883 15.5664428,72.7196764 L17.7824821,63.3076541 L14.1332092,66.956927 C13.1529269,67.9372093 11.5635752,67.9372093 10.5832929,66.956927 L16.3887011,61.1515188 L8.22101361,63.3400441 C7.86220537,62.0009535 8.65688121,60.6245346 9.99597176,60.2657263 L17.6437265,58.2165166 L18.0294578,59.6560855 L18.5254544,60.152082 L18.6586151,59.5865184 L19.502888,61.1295157 L19.7317543,61.3583819 L19.664768,61.4253682 L19.8152751,61.7004359 L19.8152751,60.7782803 L22.8416963,60.7782803 Z" id="Combined-Shape-Copy-2" fill="#CEA053" transform="translate(20.575660, 66.462918) scale(-1, 1) translate(-20.575660, -66.462918) "></path>
                    <path d="M0,6.19402985 C4.27185601,-1.45304392 9.04963379,-1.45304392 14.3333333,6.19402985 C17.5422295,10.8382503 24.839982,19.5157148 28.7483302,32.2264234 C31.3538957,40.7002291 32.7807808,50.6048542 33.0289855,61.9402985 L0,67.5149254 L0,6.19402985 Z" id="Rectangle-9" fill="#0E4829"></path>
                </g>
            </g>
            <g id="Body" transform="translate(27.000000, 134.000000)" fill="#3ECF6F">
                <path d="M62.942029,98 C75.6765947,98 86,76.0619527 86,49 C86,21.9380473 69.4447107,0 56.7101449,0 C43.9755792,0 39.884058,21.9380473 39.884058,49 C39.884058,76.0619527 50.2074632,98 62.942029,98 Z" id="Oval"></path>
                <path d="M23.057971,98 C35.7925368,98 46.115942,76.0619527 46.115942,49 C46.115942,21.9380473 29.5606527,0 16.826087,0 C4.0915212,0 0,21.9380473 0,49 C0,76.0619527 10.3234053,98 23.057971,98 Z" id="Oval-Copy" transform="translate(23.057971, 49.000000) scale(-1, 1) translate(-23.057971, -49.000000) "></path>
            </g>
            <g id="Head,Eyes-face" transform="translate(23.000000, 68.000000)" fill="#E1C5C0">
                <path d="M47.5,82 C73.7335256,82 95,69.855796 95,47.2121212 C95,24.5684465 73.7335256,0 47.5,0 C21.2664744,0 0,24.5684465 0,47.2121212 C0,69.855796 21.2664744,82 47.5,82 Z" id="Oval-4"></path>
            </g>
            <path d="M135.312148,81.4281262 L142.871185,88.5989615 C144.548601,90.1902325 144.916207,92.7240649 143.760151,94.7264138 L143.272212,95.5715487 C142.012193,97.7539655 139.324955,98.6576029 137.002294,97.6799338 L126.660878,93.3269593 L126.660878,110 C126.660878,112.761424 124.422302,115 121.660878,115 L118.576305,115 C117.15449,115 115.871285,114.406539 114.960886,113.453813 C111.578433,112.64455 108.734869,110.055015 107.77148,106.459598 L107.560183,105.671029 C104.527088,106.197416 101.293713,105.289503 98.9514994,102.947289 L97.3098725,101.305662 L99.7667637,113.385079 C94.5419389,114.785067 89.1714673,111.684423 87.7714796,106.459598 L87.5601831,105.671029 C84.5270876,106.197416 81.2937134,105.289503 78.9514994,102.947289 L77.3098725,101.305662 L79.7667637,113.385079 C74.5419389,114.785067 69.1714673,111.684423 67.7714796,106.459598 L67.5601831,105.671029 C64.5270876,106.197416 61.2937134,105.289503 58.9514994,102.947289 L54.1620562,98.1578456 L52.5389936,104.215198 C51.139006,109.440022 45.7685344,112.540666 40.5437095,111.140678 L43.1331279,98.4096856 L40.8399255,100.702888 C38.3618287,103.180985 34.8861717,104.053533 31.705585,103.320531 C29.461605,106.799833 25.1528993,108.598304 20.9389349,107.469176 L23.5865699,94.4519581 L20.7279375,97.3105905 C16.9031002,101.135428 10.7018138,101.135428 6.87697652,97.3105905 L17.5790405,86.6085265 C17.1521575,86.1819687 16.7827495,85.7485822 16.4733328,85.3090788 L4.40955007,88.5415596 C3.00956247,83.3167348 6.1102057,77.9462632 11.3350306,76.5462756 L21.512176,73.8193177 L21.6600042,74.3710201 C31.5201732,68.8139173 51.8502646,65 75.3295777,65 C107.826663,65 134.290917,72.3061626 135.312148,81.4281262 Z" id="Combined-Shape" fill="#CEA053"></path>
            <g id="Hat">
                <path d="M-4.95198677e-05,61.7054795 L35.5,61.7054795 L71,61.7054795 L106.5,61.7054795 L142,61.7054795 L141.999962,68.2584966 C141.999962,80.5142755 132.064691,90.4495473 119.808912,90.4495473 C117.891535,90.4495473 115.982244,90.2010505 114.128743,89.7102661 C114.128743,89.7102661 114.128743,89.7102661 114.128743,89.7102661 C107.678547,88.0023323 103.524452,79.7808219 96.5350877,79.7808219 C78.7850877,79.7808219 92.4676863,90.3767123 71,90.3767123 C49.5323137,90.3767123 59.4780702,76.6643836 41.7280702,76.6643836 C36.291097,76.6643836 30.4158632,81.9923147 24.1023688,83.9221495 C24.1023688,83.9221495 24.1023688,83.9221495 24.1023688,83.9221495 L24.1023688,83.9221495 C14.2518627,86.9331366 3.82556239,81.3886109 0.814575314,71.5381048 C0.274490451,69.771206 -5.04916603e-05,67.9338618 -5.36827496e-05,66.0862626 L-4.95198677e-05,61.7054795 Z" id="Rectangle-2" fill="#000000"></path>
                <g id="Rectangle-3" transform="translate(26.780702, 0.000000)">
                    <mask id="mask-2" fill="white">
                        <use xlink:href="#path-1"></use>
                    </mask>
                    <use id="Mask" fill="#000000" xlink:href="#path-1"></use>
                    <path d="M8.71929825,45.5 C15.8815789,47.1621005 23.0438596,47.9931507 30.2061404,47.9931507 C40.9495614,47.9931507 40.9495614,47.9931507 51.6929825,47.9931507 C62.4364035,47.9931507 62.4364035,47.9931507 73.1798246,47.9931507 C80.3421053,47.9931507 87.504386,47.1621005 94.6666667,45.5 L94.6666667,56.7191781 C87.504386,58.3812785 80.3421053,59.2123288 73.1798246,59.2123288 C62.4364035,59.2123288 62.4364035,59.2123288 51.6929825,59.2123288 C40.9495614,59.2123288 40.9495614,59.2123288 30.2061404,59.2123288 C23.0438596,59.2123288 15.8815789,58.3812785 8.71929825,56.7191781 L8.71929825,45.5 Z" fill="#36BA52" mask="url(#mask-2)" transform="translate(51.692982, 52.356164) rotate(4.000000) translate(-51.692982, -52.356164) "></path>
                </g>
            </g>
        </g>
    </g>
</svg>