<?xml version="1.0" encoding="UTF-8"?>
<svg width="130px" height="231px" viewBox="0 0 130 231" version="1.1" xmlns="http://www.w3.org/2000/svg" xmlns:xlink="http://www.w3.org/1999/xlink">
    <!-- Generator: Sketch 48.2 (47327) - http://www.bohemiancoding.com/sketch -->
    <title>Dorothy Copy</title>
    <desc>Created with Sketch.</desc>
    <defs>
        <path d="M13.7948186,2.3735895 C23.1965458,0.791196498 32.5982729,3.68357818e-16 42,0 C51.4017271,0 60.8034542,0.791196498 70.2051814,2.3735895 L70.2051828,2.37358066 C78.1686072,3.71389471 84,10.6087805 84,18.6842105 L84,18.6842105 C84,24.6895822 79.1316844,29.5578978 73.1263127,29.5578978 C72.499457,29.5578978 71.8737754,29.5036917 71.2562595,29.3958853 C61.5041717,27.6933689 51.7520859,26.8421053 42,26.8421053 C32.2479141,26.8421053 22.4958283,27.6933689 12.7437424,29.3958963 L12.7437405,29.3958853 C6.82784586,30.4286871 1.19481439,26.4701583 0.162012524,20.5542637 C0.0542060863,19.9367479 -1.69958916e-15,19.3110662 -1.77635684e-15,18.6842105 L-3.55271368e-15,18.6842105 C-4.54166863e-15,10.6087805 5.83139276,3.71389471 13.7948172,2.37358066 Z" id="path-1"></path>
        <path d="M61.1764706,119.411765 C94.9633023,119.411765 122.352941,102.974648 122.352941,70 C122.352941,37.0253517 94.9633023,0 61.1764706,0 C27.3896388,0 0,37.0253517 0,70 C0,102.974648 27.3896388,119.411765 61.1764706,119.411765 Z" id="path-3"></path>
    </defs>
    <g id="Moodboard" stroke="none" stroke-width="1" fill="none" fill-rule="evenodd" transform="translate(-912.000000, -50.000000)">
        <g id="Dorothy-Copy" transform="translate(912.000000, 50.000000)">
            <g id="Legs" transform="translate(38.000000, 189.000000)">
                <g id="Right-Leg" transform="translate(28.000000, 0.000000)">
                    <polygon id="Rectangle-6-Copy" fill="#FAF2DD" transform="translate(9.000000, 12.000000) scale(-1, 1) translate(-9.000000, -12.000000) " points="0 0 18 0 16.4117647 24 5.29411765 24"></polygon>
                    <path d="M2,24 L12.5612167,24 C24.3797212,32.0449606 28.4030418,37.4082677 24.6311787,40.0899213 C22.322285,41.7314583 19.1926249,42 13.464426,42 C9.64562675,42 5.82415142,41.3633071 2,40.0899213 L2,24 Z" id="Rectangle-15" fill="#FF0707"></path>
                </g>
                <g id="Left-Leg">
                    <polygon id="Rectangle-6" fill="#FAF2DD" points="8 0 24 0 24 24 13.1612903 24"></polygon>
                    <path d="M0,24 L10.0703934,24 C22.2387854,32.0449606 26.4347826,37.4082677 22.6583851,40.0899213 C20.3467157,41.7314583 17.2132932,42 11.4782081,42 C7.65481805,42 3.82874868,41.3633071 0,40.0899213 L0,24 Z" id="Rectangle-15-Copy" fill="#FF0707" transform="translate(12.000000, 33.000000) scale(-1, 1) translate(-12.000000, -33.000000) "></path>
                </g>
            </g>
            <g id="Arms" transform="translate(6.000000, 128.000000)" fill="#FAF2DD">
                <path d="M8.77788601,1.82913343 L25.2759612,1.82913343 L25.2759612,31.8738945 C25.2759612,36.4297122 21.5827412,40.1229321 17.0269236,40.1229321 L17.0269236,40.1229321 C12.4711059,40.1229321 8.77788601,36.4297122 8.77788601,31.8738945 L8.77788601,1.82913343 Z" id="Rectangle-7" transform="translate(17.026924, 20.976033) rotate(-330.000000) translate(-17.026924, -20.976033) "></path>
                <path d="M96.5770492,1.82913343 L113.075124,1.82913343 L113.075124,31.8738945 C113.075124,36.4297122 109.381904,40.1229321 104.826087,40.1229321 L104.826087,40.1229321 C100.270269,40.1229321 96.5770492,36.4297122 96.5770492,31.8738945 L96.5770492,1.82913343 Z" id="Rectangle-7-Copy" transform="translate(104.826087, 20.976033) scale(-1, 1) rotate(-330.000000) translate(-104.826087, -20.976033) "></path>
            </g>
            <g id="Shoulder" transform="translate(22.000000, 112.000000)">
                <g id="Rectangle-4-+-Rectangle-4-Copy-Mask">
                    <mask id="mask-2" fill="white">
                        <use xlink:href="#path-1"></use>
                    </mask>
                    <use id="Mask" fill="#FFFFFF" xlink:href="#path-1"></use>
                    <rect id="Rectangle-4" fill="#9FDDEB" mask="url(#mask-2)" x="22.6347305" y="0" width="9.55688623" height="28.9473684"></rect>
                    <rect id="Rectangle-4-Copy" fill="#9FDDEB" mask="url(#mask-2)" x="51.3053892" y="0" width="9.55688623" height="28.9473684"></rect>
                </g>
            </g>
            <g id="Head-&amp;-eyes">
                <path d="M15.5698373,77.7205882 L20.3921569,77.7205882 C22.6935019,77.7205882 24.5591107,79.586197 24.5591107,81.8875421 C24.5591107,82.7882864 24.2672399,83.6647805 23.7272283,84.385702 C21.5038497,87.3539519 20.3921569,90.3221965 20.3921569,93.2904412 C20.3921569,101.075368 30.5882353,101.075368 30.5882353,108.860294 C30.5882353,116.645221 25.4901961,116.645221 25.4901961,124.430147 C25.4901961,126.835901 25.8553347,129.241655 26.5856119,131.647408 L26.5856346,131.647402 C27.6239618,135.067965 25.6927778,138.68261 22.2722145,139.720937 C21.6626751,139.905965 21.0291606,140 20.3921569,140 L20.3921569,140 C12.1443721,140 5.38311564,133.458238 5.11101976,125.214942 C5.10235666,124.953345 5.09803922,124.691746 5.09803922,124.430147 C5.09803922,116.645221 10.1960784,116.645221 10.1960784,108.860294 C10.1960784,101.075368 1.69798816e-15,101.075368 1.69798816e-15,93.2904412 C1.69798816e-15,93.2904412 1.69798816e-15,93.2904412 1.69798816e-15,93.2904412 L3.55271368e-15,93.2904412 C2.49964189e-15,84.6914575 6.9708536,77.7206039 15.5698373,77.7206039 Z" id="Rectangle-3" fill="#9D2E03" transform="translate(15.294118, 108.860294) scale(-1, 1) translate(-15.294118, -108.860294) "></path>
                <path d="M114.981602,77.7205882 L119.803922,77.7205882 C122.105267,77.7205882 123.970875,79.586197 123.970875,81.8875421 C123.970875,82.7882864 123.679005,83.6647805 123.138993,84.385702 C120.915614,87.3539519 119.803922,90.3221965 119.803922,93.2904412 C119.803922,101.075368 130,101.075368 130,108.860294 C130,116.645221 124.901961,116.645221 124.901961,124.430147 C124.901961,126.835901 125.267099,129.241655 125.997377,131.647408 L125.997399,131.647402 C127.035727,135.067965 125.104543,138.68261 121.683979,139.720937 C121.07444,139.905965 120.440925,140 119.803922,140 L119.803922,140 C111.556137,140 104.79488,133.458238 104.522784,125.214942 C104.514121,124.953345 104.509804,124.691746 104.509804,124.430147 C104.509804,116.645221 109.607843,116.645221 109.607843,108.860294 C109.607843,101.075368 99.4117647,101.075368 99.4117647,93.2904412 C99.4117647,93.2904412 99.4117647,93.2904412 99.4117647,93.2904412 L99.4117647,93.2904412 C99.4117647,84.6914575 106.382618,77.7206039 114.981602,77.7206039 Z" id="Rectangle-3-Copy" fill="#9D2E03"></path>
                <g id="Head" transform="translate(4.078431, 0.000000)">
                    <mask id="mask-4" fill="white">
                        <use xlink:href="#path-3"></use>
                    </mask>
                    <use id="Mask" fill="#FAF2DD" xlink:href="#path-3"></use>
                    <path d="M61.1764706,21.6176471 C61.7004983,24.8357026 64.3516299,28.7200736 69.1298655,33.27076 C76.297219,40.0967897 99.6945444,59.8328731 104.106105,65.8901349 C106.216568,68.7878899 110.483745,99.9455293 114.361119,102.729648 C118.588733,105.765253 122.352941,79.9291934 122.352941,70 C122.352941,37.0253517 94.9633023,0 61.1764706,0 C27.3896388,0 0,37.0253517 0,70 C0,81.373677 1.80027246,110.392588 10.3861658,107.029707 C18.9720592,103.666827 17.6230043,73.7463689 23.3460023,65.888587 C27.7574875,59.8315364 42.8550276,38.2896598 48.1258126,33.2700208 C51.6396692,29.9235949 55.9898886,26.0394703 61.1764706,21.6176471 Z" id="Oval-Copy" fill="#9D2E03" mask="url(#mask-4)"></path>
                </g>
                <g id="Eyes" transform="translate(26.209804, 67.941176)">
                    <g id="Right-Eye" transform="translate(60.456863, 0.000000)">
                        <ellipse id="Oval-2" fill="#000000" cx="9.43137255" cy="12.0955882" rx="9.43137255" ry="9.52205882"></ellipse>
                        <path d="M9.43137255,0.21475458 L9.43137255,3.34558824" id="Line-Copy" stroke="#000000" stroke-linecap="square"></path>
                        <path d="M17.1411911,2.76751916 L15.0392157,4.88970588" id="Line-Copy-2" stroke="#000000" stroke-linecap="square"></path>
                        <path d="M3.31372549,2.31617647 L4.33333333,5.40441176" id="Line" stroke="#000000" stroke-linecap="square"></path>
                    </g>
                    <g id="Left-Eye" transform="translate(9.662745, 11.000000) scale(-1, 1) translate(-9.662745, -11.000000) translate(0.162745, 0.000000)">
                        <ellipse id="Oval-2" fill="#000000" cx="9.43137255" cy="12.0955882" rx="9.43137255" ry="9.52205882"></ellipse>
                        <path d="M9.43137255,0.21475458 L9.43137255,3.34558824" id="Line-Copy" stroke="#000000" stroke-linecap="square"></path>
                        <path d="M17.1411911,2.76751916 L15.0392157,4.88970588" id="Line-Copy-2" stroke="#000000" stroke-linecap="square"></path>
                        <path d="M3.31372549,2.31617647 L4.33333333,5.40441176" id="Line" stroke="#000000" stroke-linecap="square"></path>
                    </g>
                </g>
            </g>
            <g id="Dress" transform="translate(24.000000, 112.000000)">
                <g id="Straps" transform="translate(21.525000, 0.000000)"></g>
                <g transform="translate(0.000000, 18.263636)" fill="#ACE3F0" id="Rectangle-5">
                    <path d="M23.0625,7.82727273 C36.6440149,-2.60692251 40.6418011,-1.8361828 58.9375,7.82727273 C71.1346326,14.2695764 78.8221326,28.7065461 82,51.1381818 C68.3333333,58.0957576 54.6666667,61.5745455 41,61.5745455 C27.3333333,61.5745455 13.6666667,58.0957576 0,51.1381818 C6.32065674,29.2203726 14.0081567,14.7834029 23.0625,7.82727273 Z"></path>
                </g>
            </g>
        </g>
    </g>
</svg>
