<?xml version="1.0" encoding="UTF-8"?>
<svg width="206px" height="346px" viewBox="0 0 206 346" version="1.1" xmlns="http://www.w3.org/2000/svg" xmlns:xlink="http://www.w3.org/1999/xlink">
    <!-- Generator: Sketch 48.2 (47327) - http://www.bohemiancoding.com/sketch -->
    <title>Tin Man</title>
    <desc>Created with Sketch.</desc>
    <defs></defs>
    <g id="Moodboard" stroke="none" stroke-width="1" fill="none" fill-rule="evenodd" transform="translate(-1228.000000, -50.000000)">
        <g id="Tin-Man" transform="translate(1219.000000, 50.000000)">
            <g id="Legs" transform="translate(47.000000, 249.000000)">
                <g id="Right-Leg" transform="translate(45.000000, 0.000000)">
                    <path d="M1,65 L26,65 C23.8333333,70.4700855 21.6666667,74.5375849 19.5,77.2024984 C17.3333333,79.8674118 15.1666667,81.1297392 13,80.9894806 C10.6113359,79.7346224 8.37067009,77.8202446 6.27800257,75.2463472 C4.18533504,72.6724497 2.42600086,69.2570007 1,65 Z" id="Rectangle-14" fill="#979797"></path>
                    <path d="M5,38 L21,38 C22.1666667,43.4700855 21.6666667,47.5375849 19.5,50.2024984 C17.3333333,52.8674118 15.1666667,54.1297392 13,53.9894806 C10.6113359,52.7346224 8.37067009,50.8202446 6.27800257,48.2463472 C4.18533504,45.6724497 3.75933419,42.2570007 5,38 Z" id="Rectangle-14-Copy" fill="#979797"></path>
                    <path d="M5,22 L21,22 C22.1666667,27.4700855 21.6666667,31.5375849 19.5,34.2024984 C17.3333333,36.8674118 15.1666667,38.1297392 13,37.9894806 C10.6113359,36.7346224 8.37067009,34.8202446 6.27800257,32.2463472 C4.18533504,29.6724497 3.75933419,26.2570007 5,22 Z" id="Rectangle-14-Copy-2" fill="#979797" transform="translate(12.959918, 30.000000) scale(1, -1) translate(-12.959918, -30.000000) "></path>
                    <ellipse id="Oval-13-Copy" fill="#D8D8D8" cx="13.5" cy="18.5" rx="13.5" ry="18.5"></ellipse>
                    <ellipse id="Oval-13-Copy-2" fill="#D8D8D8" cx="13.5" cy="58.5" rx="13.5" ry="18.5"></ellipse>
                    <g id="joint" transform="translate(5.000000, 30.000000)" fill="#D8D8D8" stroke="#999999">
                        <circle id="Oval-11" cx="8" cy="8" r="8"></circle>
                        <circle id="Oval-11-Copy" cx="8" cy="8" r="4"></circle>
                    </g>
                    <path d="M13.183741,78 C21.5401647,84.4710145 28.2253037,88.8768116 33.2391579,91.2173913 C33.2391579,91.2173913 33.2391579,91.2173913 33.2391579,91.2173913 L33.2391579,91.2173913 C34.757343,91.9261142 35.4135418,93.7313799 34.7048189,95.249565 C34.2063016,96.3174599 33.1344256,97.0000017 31.9559015,97.0000017 L15.6906681,97 C10.7998327,97 6.83502719,93.0351945 6.83502719,88.1443591 C6.83502719,85.8462049 7.72843678,83.6380567 9.32648935,81.9864695 L13.183741,78 Z" id="Rectangle-16-Copy" fill="#D8D8D8"></path>
                    <g id="joint-copy" transform="translate(7.000000, 74.000000)" fill="#D8D8D8">
                        <circle id="Oval-11" cx="6.5" cy="6.5" r="6.5"></circle>
                        <circle id="Oval-11-Copy" stroke="#999999" cx="6.5" cy="6.5" r="3.25"></circle>
                    </g>
                </g>
                <g id="Left-Leg" transform="translate(17.500000, 48.500000) scale(-1, 1) translate(-17.500000, -48.500000) ">
                    <path d="M1,65 L26,65 C23.8333333,70.4700855 21.6666667,74.5375849 19.5,77.2024984 C17.3333333,79.8674118 15.1666667,81.1297392 13,80.9894806 C10.6113359,79.7346224 8.37067009,77.8202446 6.27800257,75.2463472 C4.18533504,72.6724497 2.42600086,69.2570007 1,65 Z" id="Rectangle-14" fill="#979797"></path>
                    <path d="M5,38 L21,38 C22.1666667,43.4700855 21.6666667,47.5375849 19.5,50.2024984 C17.3333333,52.8674118 15.1666667,54.1297392 13,53.9894806 C10.6113359,52.7346224 8.37067009,50.8202446 6.27800257,48.2463472 C4.18533504,45.6724497 3.75933419,42.2570007 5,38 Z" id="Rectangle-14-Copy" fill="#979797"></path>
                    <path d="M5,22 L21,22 C22.1666667,27.4700855 21.6666667,31.5375849 19.5,34.2024984 C17.3333333,36.8674118 15.1666667,38.1297392 13,37.9894806 C10.6113359,36.7346224 8.37067009,34.8202446 6.27800257,32.2463472 C4.18533504,29.6724497 3.75933419,26.2570007 5,22 Z" id="Rectangle-14-Copy-2" fill="#979797" transform="translate(12.959918, 30.000000) scale(1, -1) translate(-12.959918, -30.000000) "></path>
                    <ellipse id="Oval-13-Copy" fill="#D8D8D8" cx="13.5" cy="18.5" rx="13.5" ry="18.5"></ellipse>
                    <ellipse id="Oval-13-Copy-2" fill="#D8D8D8" cx="13.5" cy="58.5" rx="13.5" ry="18.5"></ellipse>
                    <g id="joint" transform="translate(5.000000, 30.000000)" fill="#D8D8D8" stroke="#999999">
                        <circle id="Oval-11" cx="8" cy="8" r="8"></circle>
                        <circle id="Oval-11-Copy" cx="8" cy="8" r="4"></circle>
                    </g>
                    <path d="M13.183741,78 C21.5401647,84.4710145 28.2253037,88.8768116 33.2391579,91.2173913 C33.2391579,91.2173913 33.2391579,91.2173913 33.2391579,91.2173913 L33.2391579,91.2173913 C34.757343,91.9261142 35.4135418,93.7313799 34.7048189,95.249565 C34.2063016,96.3174599 33.1344256,97.0000017 31.9559015,97.0000017 L15.6906681,97 C10.7998327,97 6.83502719,93.0351945 6.83502719,88.1443591 C6.83502719,85.8462049 7.72843678,83.6380567 9.32648935,81.9864695 L13.183741,78 Z" id="Rectangle-16-Copy" fill="#D8D8D8"></path>
                    <g id="joint-copy" transform="translate(7.000000, 74.000000)" fill="#D8D8D8">
                        <circle id="Oval-11" cx="6.5" cy="6.5" r="6.5"></circle>
                        <circle id="Oval-11-Copy" stroke="#999999" cx="6.5" cy="6.5" r="3.25"></circle>
                    </g>
                </g>
            </g>
            <g id="Head-&amp;-Hat" transform="translate(19.000000, 0.000000)">
                <g id="Head" transform="translate(0.000000, 82.000000)" fill="#D8D8D8">
                    <path d="M5.13893019,0 L130.13893,0 L135.016214,42.4323731 C137.538845,64.37926 121.792374,84.2157234 99.8454873,86.7383541 C98.3291838,86.9126418 96.8041476,87 95.2778604,87 L40,87 C17.90861,87 9.81084236e-15,69.09139 7.10542736e-15,47 C6.91851108e-15,45.4737128 0.0873581647,43.9486766 0.261645927,42.4323731 L5.13893019,0 Z" id="Rectangle-20"></path>
                </g>
                <g id="Mouth" transform="translate(44.000000, 148.000000)" fill="#000000">
                    <path d="M0,0 C7.66666667,6.66666667 15.3333333,10 23,10 C30.6666667,10 38.3333333,6.66666667 46,0 L46,2 C38.3333333,8.66666667 30.6666667,12 23,12 C15.3333333,12 7.66666667,8.66666667 0,2 L0,0 Z" id="Rectangle-17"></path>
                </g>
                <g id="Nose" transform="translate(67.707107, 125.585786) rotate(-315.000000) translate(-67.707107, -125.585786) translate(57.207107, 115.085786)" fill="#000000">
                    <rect id="Rectangle-17-Copy" x="6" y="11" width="10" height="2"></rect>
                    <rect id="Rectangle-17-Copy-2" transform="translate(11.000000, 12.000000) rotate(-270.000000) translate(-11.000000, -12.000000) " x="6" y="11" width="10" height="2"></rect>
                    <path d="M10.1795364,2.58578644 C16.0406475,9.06385661 17.9943513,13.3825701 16.0406475,15.5419268 C13.110092,18.7809619 7.24898088,18.7809619 4.31842533,15.5419268 C2.36472162,13.3825701 4.31842533,9.06385661 10.1795364,2.58578644 Z" id="Rectangle-23" transform="translate(10.179536, 10.278495) rotate(-45.000000) translate(-10.179536, -10.278495) "></path>
                </g>
                <g id="Eyes" transform="translate(16.000000, 88.000000)" fill="#000000">
                    <circle id="Oval-10" cx="16" cy="16" r="16"></circle>
                    <circle id="Oval-10-Copy" cx="88" cy="16" r="16"></circle>
                </g>
                <g id="Hat" transform="translate(4.000000, 0.000000)" fill="#555555">
                    <path d="M87,29.669253 L126.049893,68.9497828 C129.943621,72.8665074 129.924978,79.1981297 126.008254,83.0918571 C124.134611,84.9544987 121.6,86 118.958036,86 L10.0419637,86 C4.51911618,86 0.0419636749,81.5228475 0.0419636749,76 C0.0419636749,73.3580366 1.08746495,70.8234255 2.95010653,68.9497828 L43,28.6633468 L43,10 C43,4.4771525 47.4771525,-2.53818305e-15 53,-3.55271368e-15 L77,0 C82.5228475,-1.01453063e-15 87,4.4771525 87,10 L87,29.669253 Z" id="Combined-Shape"></path>
                </g>
            </g>
            <g id="Axe" transform="translate(165.000000, 109.000000)" fill="#D8D8D8">
                <path d="M49.7651543,5.00094475 L49.7651486,17.4704609 C49.7651486,20.2318815 47.5265749,22.4704552 44.7651543,22.4704552 C44.3297179,22.4704552 43.8961469,22.4135747 43.4754454,22.3012573 C25.4365709,17.4853026 14.5331405,13.8696374 10.7651543,11.4542616 C6.86447207,8.95382427 17.8777639,5.16706837 43.8050297,0.09399391 L43.8050292,0.0939909645 C46.5150649,-0.436269851 49.1418443,1.33078687 49.6721051,4.04082261 C49.7339929,4.35711646 49.7651543,4.67865312 49.7651543,5.00094475 Z" id="Rectangle-22"></path>
                <path d="M-21.4728203,42.9184124 C-14.4645012,41.6629848 -2.17218942,42.9184124 17.1284415,42.9184124 C36.4290724,42.9184124 42.862616,40.6134809 55.7297032,42.9184124 C68.5967905,45.2233439 62.1632469,48.6807411 55.7297032,49.8332068 C49.2961596,50.9856726 36.4290724,52.7143712 17.1284415,52.7143712 C-2.17218942,52.7143712 -9.18050849,52.0351766 -21.4728203,49.8332068 C-33.7651321,47.6312371 -28.4811394,44.1738399 -21.4728203,42.9184124 Z" id="Rectangle-21-Copy-2" transform="translate(17.158520, 47.304185) rotate(-255.000000) translate(-17.158520, -47.304185) "></path>
            </g>
            <g id="Arms" transform="translate(0.000000, 162.000000)">
                <g id="Right-Arm" transform="translate(102.000000, 6.000000)">
                    <path d="M7.36866015,3.55555556 C14.3769792,-0.801806094 26.669291,3.55555556 45.9699219,3.55555556 C65.2705528,3.55555556 71.7040964,-4.44444444 84.5711837,3.55555556 C97.438271,11.5555556 91.0047273,23.5555556 84.5711837,27.5555556 C78.1376401,31.5555556 65.2705528,37.5555556 45.9699219,37.5555556 C26.669291,37.5555556 19.660972,35.1981939 7.36866015,27.5555556 C-4.92365167,19.9129172 0.360341081,7.9129172 7.36866015,3.55555556 Z" id="Rectangle-21" fill="#D8D8D8"></path>
                    <path d="M7.36866015,3.55555556 C12.0408729,0.650647789 28.2412935,0.650647789 55.9699219,3.55555556 L84.5711837,27.5555556 C71.7040964,34.2222222 58.8370092,37.5555556 45.9699219,37.5555556 C26.669291,37.5555556 19.660972,35.1981939 7.36866015,27.5555556 C-4.92365167,19.9129172 0.360341081,7.9129172 7.36866015,3.55555556 Z" id="Rectangle-21-Copy-5" fill="#555555"></path>
                </g>
                <g id="Arm">
                    <path d="M-7.67495644,34.0704123 C-0.66663737,29.7130507 11.6256744,34.0704123 30.9263053,34.0704123 C50.2269362,34.0704123 56.6604799,26.0704123 69.5275671,34.0704123 C82.3946544,42.0704123 75.9611107,54.0704123 69.5275671,58.0704123 C63.0940235,62.0704123 50.2269362,68.0704123 30.9263053,68.0704123 C11.6256744,68.0704123 4.61735538,65.7130507 -7.67495644,58.0704123 C-19.9672683,50.4277739 -14.6832755,38.4277739 -7.67495644,34.0704123 Z" id="Rectangle-21-Copy" fill="#D8D8D8" transform="translate(30.956383, 49.292635) rotate(-255.000000) translate(-30.956383, -49.292635) "></path>
                    <path d="M4.45249611,28.2802029 C11.4608152,23.9228413 23.753127,28.2802029 43.0537579,28.2802029 C55.9208451,28.2802029 64.7054495,25.9231803 69.4075709,21.2091351 L72.5133995,56.800245 C65.7407257,60.4535503 55.9208451,62.2802029 43.0537579,62.2802029 C23.753127,62.2802029 16.7448079,59.9228413 4.45249611,52.2802029 C-7.83981571,44.6375646 -2.55582296,32.6375646 4.45249611,28.2802029 Z" id="Rectangle-21-Copy-4" fill="#555555" transform="translate(34.798618, 41.744669) rotate(-255.000000) translate(-34.798618, -41.744669) "></path>
                </g>
            </g>
            <g id="Body" transform="translate(31.000000, 165.000000)">
                <path d="M12,0 L100,0 L110.752508,55.3754178 C114.963449,77.0617612 100.796836,98.0556579 79.1104922,102.266598 C76.5982774,102.754407 74.0450466,103 71.48591,103 L40.51409,103 C18.4227,103 0.514090043,85.09139 0.514090043,63 C0.514090043,60.4408634 0.759683004,57.8876325 1.24749169,55.3754178 L12,0 Z" id="Rectangle-11" fill="#D8D8D8"></path>
                <g id="Bolts" transform="translate(53.000000, 20.000000)" fill="#999999">
                    <circle id="Oval-12" cx="2.5" cy="2.5" r="2.5"></circle>
                    <circle id="Oval-12-Copy" cx="2.5" cy="22.5" r="2.5"></circle>
                    <circle id="Oval-12-Copy-2" cx="2.5" cy="42.5" r="2.5"></circle>
                    <circle id="Oval-12-Copy-3" cx="2.5" cy="62.5" r="2.5"></circle>
                </g>
            </g>
        </g>
    </g>
</svg>
