<?xml version="1.0" encoding="UTF-8"?>
<svg width="336px" height="391px" viewBox="0 0 336 391" version="1.1" xmlns="http://www.w3.org/2000/svg" xmlns:xlink="http://www.w3.org/1999/xlink">
    <!-- Generator: Sketch 48.2 (47327) - http://www.bohemiancoding.com/sketch -->
    <title>Lion</title>
    <desc>Created with Sketch.</desc>
    <defs>
        <path d="M71.8075184,354 C127.345594,347.672877 122.550718,345.585899 175.661451,354 C211.068606,359.609401 233.259617,368.609401 242.234485,381 L5.2344847,381 C12.5911235,367.218082 34.7821347,358.218082 71.8075184,354 Z" id="path-1"></path>
        <filter x="-3.0%" y="-15.4%" width="105.9%" height="143.0%" filterUnits="objectBoundingBox" id="filter-2">
            <feOffset dx="0" dy="2" in="SourceAlpha" result="shadowOffsetOuter1"></feOffset>
            <feGaussianBlur stdDeviation="2" in="shadowOffsetOuter1" result="shadowBlurOuter1"></feGaussianBlur>
            <feColorMatrix values="0 0 0 0 0   0 0 0 0 0   0 0 0 0 0  0 0 0 0.5 0" type="matrix" in="shadowBlurOuter1"></feColorMatrix>
        </filter>
        <filter x="-13.5%" y="-4.6%" width="126.9%" height="113.0%" filterUnits="objectBoundingBox" id="filter-3">
            <feOffset dx="0" dy="2" in="SourceAlpha" result="shadowOffsetOuter1"></feOffset>
            <feGaussianBlur stdDeviation="2" in="shadowOffsetOuter1" result="shadowBlurOuter1"></feGaussianBlur>
            <feColorMatrix values="0 0 0 0 0   0 0 0 0 0   0 0 0 0 0  0 0 0 0.5 0" type="matrix" in="shadowBlurOuter1" result="shadowMatrixOuter1"></feColorMatrix>
            <feMerge>
                <feMergeNode in="shadowMatrixOuter1"></feMergeNode>
                <feMergeNode in="SourceGraphic"></feMergeNode>
            </feMerge>
        </filter>
        <filter x="-13.5%" y="-4.9%" width="126.9%" height="113.7%" filterUnits="objectBoundingBox" id="filter-4">
            <feOffset dx="0" dy="2" in="SourceAlpha" result="shadowOffsetOuter1"></feOffset>
            <feGaussianBlur stdDeviation="2" in="shadowOffsetOuter1" result="shadowBlurOuter1"></feGaussianBlur>
            <feColorMatrix values="0 0 0 0 0   0 0 0 0 0   0 0 0 0 0  0 0 0 0.5 0" type="matrix" in="shadowBlurOuter1" result="shadowMatrixOuter1"></feColorMatrix>
            <feMerge>
                <feMergeNode in="shadowMatrixOuter1"></feMergeNode>
                <feMergeNode in="SourceGraphic"></feMergeNode>
            </feMerge>
        </filter>
        <path d="M66,199 C111.333333,162.734039 134,128.400705 134,96 C134,75.067834 119.817898,54.3029097 101.453695,33.7052271 C89.2108933,19.9734387 78.0596615,8.73836302 68,0 C22.6666667,39.5992947 0,75.5992947 0,108 C0,140.400705 22,170.734039 66,199 Z" id="path-5"></path>
    </defs>
    <g id="Moodboard" stroke="none" stroke-width="1" fill="none" fill-rule="evenodd" transform="translate(-753.000000, -560.000000)">
        <g id="Lion" transform="translate(753.000000, 560.000000)">
            <g id="Rectangle-28">
                <use fill="black" fill-opacity="1" filter="url(#filter-2)" xlink:href="#path-1"></use>
                <use fill="#AF9470" fill-rule="evenodd" xlink:href="#path-1"></use>
            </g>
            <path d="M13,313 C10.1030391,290.947931 17.3775163,277.97054 31.0479334,268.019209 C44.7183504,258.067878 100.27834,243 122,243 C149.201693,243 176.403385,246.363045 203.605078,253.089134 L203.605078,253.089133 C221.182506,257.435456 232.796532,274.160956 230.728027,292.149225 C229.679416,301.268233 227.689675,309.344779 224.758806,316.378865 C218.839204,330.58591 210.919602,344.792955 201,359 L43,359 C24.9313073,343.034712 14.9313073,327.701379 13,313 Z" id="Rectangle-27" fill="#AF9470"></path>
            <g id="Legs" transform="translate(55.000000, 277.000000)" fill="#AF9470">
                <g id="Left-Leg" filter="url(#filter-3)">
                    <rect id="Rectangle-25" x="18" y="0" width="34" height="108"></rect>
                    <path d="M29,79 L52,79 L52,108 L0,108 L0,108 C-1.96142588e-15,91.9837423 12.9837423,79 29,79 Z" id="Rectangle-26"></path>
                    <rect id="Rectangle-25-Copy" x="18" y="0" width="34" height="108"></rect>
                    <path d="M29,79 L52,79 L52,108 L0,108 L0,108 C-1.96142588e-15,91.9837423 12.9837423,79 29,79 Z" id="Rectangle-26-Copy"></path>
                </g>
                <g id="Right-Leg" filter="url(#filter-4)" transform="translate(81.000000, 57.000000) scale(-1, 1) translate(-81.000000, -57.000000) translate(55.000000, 6.000000)">
                    <rect id="Rectangle-25" x="18" y="0" width="34" height="102"></rect>
                    <path d="M27,75 L52,75 L52,102 L0,102 L0,102 C-1.82615513e-15,87.0883118 12.0883118,75 27,75 Z" id="Rectangle-26"></path>
                    <rect id="Rectangle-25-Copy" x="18" y="0" width="34" height="102"></rect>
                    <path d="M27,75 L52,75 L52,102 L0,102 L0,102 C-1.82615513e-15,87.0883118 12.0883118,75 27,75 Z" id="Rectangle-26-Copy"></path>
                </g>
            </g>
            <path d="M76.4889754,100 C81.5876678,121.836573 85,160.63661 85,200 C85,213.927675 84.5297349,227.189067 83.5892047,239.784174 L112.71388,247.588107 C112.239964,223.602722 97,195.416555 97,166 C97,133.267741 90.6042093,112.787273 85.2863841,100 L76.4889754,100 Z M66.0120699,82.3128103 C74.1018965,73.5478091 79.0381031,65.1102057 80.8206897,57 C82.4737946,49.4788948 86.7496839,41.6762268 93.6483575,33.591996 L80.5,25 C71.3888889,30.3333333 64.5555556,30.3333333 60,25 C55.4444444,19.6666667 62.2777778,11.6666667 80.5,1 C88.9166667,-0.166666667 97.3333333,2 105.75,7.5 C110.406812,10.5430654 115.063624,13.6065437 119.720437,18.6904348 C122.824978,22.0796956 126.584832,27.182884 131,34 L131,34.1526948 C135.597174,40.9016388 140.181082,48.5174072 144.751724,57 C152.491796,71.3646951 164.178271,83.2435872 179.811149,92.6366763 C210.723713,104.37843 237,126.075455 237,166 C237,186.764482 231.200659,206.915907 221.977132,225.409551 C213.813757,241.777538 197.469718,265.21105 185.588484,278.25755 C173.734077,291.274592 186.347147,257.913745 174.066464,266.183838 C168.033621,270.246493 161.993892,280.131051 151.632522,290.836543 C147.313259,297.536722 143.155585,302.267588 139.159502,305.029142 C113.892088,322.490576 104.005587,332.147529 99.5,334 C89.5437165,338.093524 105.875,319.25 102.25,304.5 C100.513288,297.433378 96.0222142,288.64528 88.7767792,278.135706 L76.0713305,292.463791 C75.8233907,293.571959 75.5702872,294.67281 75.3120199,295.766345 C75.1557998,296.427799 74.8663663,297.050461 74.461401,297.59629 C72.8160284,299.813994 69.6843864,300.27796 67.4666826,298.632588 C54.7565072,289.202575 43.7616076,279.534473 34.4819839,269.628282 C18.4052259,252.466009 0,228.559196 0,200 C0,142.892279 53.0159946,86.9702842 66.0120699,82.3128103 Z M112.668697,251.192507 L100.424884,265 L110.726515,265 C111.669746,260.351028 112.387584,255.902423 112.630692,251.901534 C112.645026,251.665638 112.657684,251.429299 112.668696,251.192521 Z" id="Combined-Shape" fill="#2B2527"></path>
            <g id="Ears" transform="translate(32.000000, 41.000000)" fill="#AF9470">
                <path d="M96.5203142,13.8259053 C104.060223,4.68437148 119.14004,4.68437148 126.679949,13.8259053 C131.706555,19.9202611 131.706555,32.1089728 126.679949,50.3920403 L96.5203142,50.3920403 C91.4937084,32.1089728 91.4937084,19.9202611 96.5203142,13.8259053 Z" id="Rectangle-15" transform="translate(111.600132, 28.680898) rotate(-315.000000) translate(-111.600132, -28.680898) "></path>
                <path d="M13.5053225,18.7672116 C21.0452312,8.43342921 36.1250485,8.43342921 43.6649572,18.7672116 C48.691563,25.6563999 48.691563,39.4347765 43.6649572,60.1023414 L13.5053225,60.1023414 C8.47871668,39.4347765 8.47871668,25.6563999 13.5053225,18.7672116 Z" id="Rectangle-15-Copy" transform="translate(28.585140, 35.559608) scale(-1, 1) rotate(-285.000000) translate(-28.585140, -35.559608) "></path>
            </g>
            <g id="Face" transform="translate(36.000000, 68.000000)">
                <g id="Combined-Shape" transform="translate(0.000000, 8.000000)">
                    <mask id="mask-6" fill="white">
                        <use xlink:href="#path-5"></use>
                    </mask>
                    <use id="Mask" fill="#AF9470" xlink:href="#path-5"></use>
                    <path d="M48.6018137,102.542748 C48.8097399,102.206736 48.9822281,101.901958 49.1192782,101.628415 C50.5617457,98.7493426 52.1762089,93.5687728 55,92 C61.75,88.25 72.4703636,87.5762909 78,92 C80.2865945,93.8292756 80.6938341,97.0888336 83.221719,101.778674 C83.2972771,101.918853 83.3753294,102.059595 83.455876,102.200902 C98.5844918,105.988639 114.054839,114.272119 123.35894,123.946751 C129.405674,130.234294 135.362724,137.109418 136.788587,143.719919 C138.509456,151.69811 138,159.290852 138,165 C138,185.434536 106.212217,202 67,202 C27.7877828,202 -4,185.434536 -4,165 C-4,154.560414 -5.70345607,137.822707 7.64106017,123.946751 C16.6745401,114.553517 33.0205709,106.471685 48.6018137,102.542748 Z" fill="#FFFFFF" mask="url(#mask-6)"></path>
                </g>
                <rect id="Rectangle-13" fill="#AF9470" x="31" y="0" width="72" height="47"></rect>
            </g>
            <g id="White-Mask" transform="translate(31.000000, 164.000000)"></g>
            <g id="Mouth" transform="translate(75.000000, 186.000000)" fill="#000000">
                <rect id="Rectangle-16" x="27" y="0" width="1" height="25"></rect>
                <path d="M32,2 L33,2 C26.3333333,11.1666667 23,20.3333333 23,29.5 C23,38.6666667 26.3333333,47.8333333 33,57 L32,57 C25.3333333,47.8333333 22,38.6666667 22,29.5 C22,20.3333333 25.3333333,11.1666667 32,2 Z" id="Rectangle-16-Copy-2" transform="translate(27.500000, 29.500000) rotate(-270.000000) translate(-27.500000, -29.500000) "></path>
            </g>
            <g id="Eyes" transform="translate(50.000000, 154.000000)" fill="#000000">
                <path d="M8.00814994,-3.45556916e-15 C8.00273596,0.120777116 8,0.242251207 8,0.364364316 C8,4.78264231 11.581722,8.36436432 16,8.36436432 C20.418278,8.36436432 24,4.78264231 24,0.364364316 C24,0.242251207 23.997264,0.120777116 23.9918501,-3.99680289e-15 C28.5877903,0.0625637914 32,0.184018563 32,0.364364316 C32,9.20092031 24.836556,16.3643643 16,16.3643643 C7.163444,16.3643643 0,9.20092031 0,0.364364316 C0,0.184018563 3.4122097,0.0625637914 8.00814994,-3.46944695e-15 Z" id="Combined-Shape"></path>
                <path d="M81.0081499,-3.45556916e-15 C81.002736,0.120777116 81,0.242251207 81,0.364364316 C81,4.78264231 84.581722,8.36436432 89,8.36436432 C93.418278,8.36436432 97,4.78264231 97,0.364364316 C97,0.242251207 96.997264,0.120777116 96.9918501,-3.99680289e-15 C101.58779,0.0625637914 105,0.184018563 105,0.364364316 C105,9.20092031 97.836556,16.3643643 89,16.3643643 C80.163444,16.3643643 73,9.20092031 73,0.364364316 C73,0.184018563 76.4122097,0.0625637914 81.0081499,-3.46944695e-15 Z" id="Combined-Shape-Copy-4" stroke="#979797"></path>
            </g>
            <g id="Nose" transform="translate(89.000000, 163.000000)" fill="#2B2527">
                <path d="M0.940352294,1.88577561 C1.69937426,0.476163377 25.4896144,0.352198387 26.3153867,1.88577561 C29.6640288,8.10468233 19.9716281,25.4483076 13.6278695,25.4483076 C7.2841109,25.4483076 -2.05476424,7.44813488 0.940352294,1.88577561 Z" id="Rectangle-6"></path>
            </g>
            <g id="Tail" transform="translate(196.000000, 184.000000)">
                <g id="Group-2" transform="translate(0.000000, 14.000000)" fill="#AF9470">
                    <path d="M51.7990981,107.260328 C56.6976046,100.50868 59.7645719,95.5885703 61,92.5 C63.474164,86.3145901 67.6957808,23.3104119 73.8079068,19.1121503 C76.8639753,12.9505164 82.2335298,8.03522477 89.0138568,5.64216818 L105,4.54747351e-13 L108.770851,9.19958208 C97.9836617,15.1862761 92.109897,18.8269053 91.1495572,20.1214699 C87.1998786,25.4457456 86.3166929,32.238589 86.5,40.5 C86.8081178,54.3864638 86.9738308,67.5413427 86.9971388,79.9646365 C86.9980985,79.9764746 86.9990522,79.9882625 87,80 C87.8701745,90.7767764 86.75,89.75 83.5,99.5 C80.3079577,109.076127 78.3788836,119.364981 68.5436096,123.766129 C68.1603374,124.01748 67.7620709,124.235153 67.34881,124.419149 C59.0127077,128.130621 67.34881,124.419149 50.6766054,131.842093 C39.5618023,136.790722 25.7354216,135.649048 9.19746332,128.417071 L0.249257171,108.319071 C22.344617,113.076733 36.1709977,114.218407 41.7283992,111.744092 L51.7990981,107.260328 Z" id="Combined-Shape"></path>
                </g>
                <path d="M119.38307,40.6561371 C128.670971,34.6792474 133.314922,27.7915227 133.314922,19.9929631 C133.314922,12.1944034 125.451219,4.09885654 109.723812,-4.29367755 C109.451219,4.09885654 109.314922,12.1944034 109.314922,19.9929631 C109.314922,27.7915227 112.670971,34.6792474 119.38307,40.6561371 Z" id="Oval-16" fill="#2B2527" transform="translate(121.314922, 18.181230) rotate(-285.000000) translate(-121.314922, -18.181230) "></path>
            </g>
        </g>
    </g>
</svg>
